<?xml version="1.0" encoding="UTF-8"?>
<svg id="logosandtypes_com" data-name="logosandtypes com" xmlns="http://www.w3.org/2000/svg" viewBox="0 0 150 150">
  <defs>
    <style>
      .cls-1 {
        fill: none;
      }
    </style>
  </defs>
  <path id="Layer_3" data-name="Layer 3" class="cls-1" d="M0,0H150V150H0V0Z"/>
  <path d="M125.11,25.38c-7.05-11.24-17.41-18.19-30.82-18.64-24.78-.83-47.62,6.29-68.59,19.12-11.13,6.81-17.96,17.16-18.41,30.38-.86,25.12,6.28,48.34,19.55,69.55,6.93,11.07,17.51,17.41,30.73,17.83,23.46,.7,45.18-6.12,65.35-17.51,14.57-8.18,21.97-20.96,21.49-38.04-1.69-22.34-7.3-43.55-19.29-62.69Zm-37.62,81.72c-3.79,1.39-7.79,2.11-11.84,2.12-2.71,0-5.41-.34-8.03-1.03-15.24-4.09-26.3-18.18-26.3-33.49v-.25c-.06-18.94,15.26-34.35,34.2-34.41,16.25,.18,26.09,12.05,26.5,12.55,1.13,1.4,.92,3.46-.47,4.6-1.4,1.13-3.47,.92-4.6-.48-.07-.09-8.39-10-21.51-10.14h-.26c-7.19,.13-14.05,3.03-19.16,8.09-5.36,5.28-8.32,12.54-8.18,20.06,0,12.41,9.03,23.81,21.46,27.19,5.29,1.33,10.85,1.01,15.96-.91,6.48-2.36,12.6-7.72,14.54-13.91,2.48-1.34,4.87-2.85,7.16-4.5,.36,11.19-9.44,20.85-19.49,24.52Zm27.22-35.67c-2.54,2.65-5.33,5.05-8.34,7.16-1.88,1.35-3.85,2.56-5.92,3.61-4.16,2.13-8.91,3.7-13.77,3.58-8.72-.19-11.9-5-11.97-9.43-.08-2.36,.81-4.65,2.46-6.33,2.1-2.12,5.25-3.2,9.36-3.2,5.03,0,11.98,2.05,16.34,6.27,2.53-1.82,4.89-3.85,7.06-6.1,1.23-1.33,3.28-1.4,4.61-.18s1.4,3.29,.18,4.62Z"/>
  <path d="M81.82,74.55c-.43,.46-.64,1.07-.58,1.69,.04,2.38,3.05,2.95,5.59,3.01,3.53-.03,7.01-.92,10.13-2.58-3.08-2.1-6.7-3.27-10.42-3.38-3.02,0-4.24,.79-4.71,1.26Z"/>
</svg>